<svg xmlns="http://www.w3.org/2000/svg" viewBox="29.764 153.069 535.752 391.695" enable-background="new 29.764 153.069 535.752 391.695"><path fill="#fff" d="M173.822 317.366c5.06 5.655 11.31 9.822 18.454 13.096 7.44 3.274 15.478 4.762 24.704 4.762 7.44 0 13.99-1.19 20.24-3.274 6.25-2.38 11.607-5.357 16.072-9.822 4.464-4.167 8.333-9.524 11.012-15.477 2.68-5.95 4.465-12.79 5.06-20.24h-25.597c-.893 8.04-3.87 14.59-8.334 19.35-4.464 5.06-10.715 7.44-18.75 7.44-5.954 0-11.014-1.19-15.18-3.57-4.168-2.38-7.44-5.36-10.12-9.23-2.68-3.87-4.465-8.03-5.655-12.79-1.19-4.76-1.786-9.52-1.786-14.58 0-5.36.595-10.41 1.786-15.18 1.19-5.06 2.976-9.22 5.655-13.09 2.68-3.87 5.952-6.84 10.12-9.22 4.166-2.38 9.226-3.57 15.18-3.57 3.273 0 6.25.6 9.226 1.49 2.97 1.19 5.65 2.68 8.03 4.47 2.38 1.79 4.16 4.17 5.95 6.55 1.49 2.38 2.68 5.36 2.97 8.34h25.59c-.9-6.84-2.68-13.09-5.66-18.45-2.98-5.35-6.85-9.82-11.61-13.39-4.77-3.57-9.83-6.25-15.78-8.33-5.95-1.79-12.21-2.98-18.75-2.98-9.23 0-17.27 1.49-24.71 4.76s-13.4 7.74-18.46 13.4c-5.06 5.66-8.93 12.5-11.61 19.94-2.68 7.74-4.17 16.07-4.17 25 0 8.63 1.48 16.97 4.16 24.41 3.27 8.04 7.14 14.59 11.9 20.24zm137.21-11.608h44.647l8.92 26.788h27.38l-44.65-119.65h-27.08l-44.95 119.65h26.49l9.22-26.788zm22.325-63.397h.298l15.18 44.06H317.88l15.477-44.05zm98.816 43.46h26.192c6.548 0 11.31 1.49 14.287 4.47 2.977 2.98 4.762 7.45 5.655 13.7.595 4.76 1.19 9.82 1.487 15.18.298 5.36 1.19 9.82 2.68 13.69h26.19c-1.19-1.78-2.082-3.57-2.678-6.25-.595-2.38-1.19-5.06-1.487-7.74-.3-2.68-.6-5.35-.6-7.74 0-2.68-.3-4.76-.3-6.84-.3-2.97-.6-5.95-1.19-8.93s-1.49-5.65-2.98-8.33c-1.49-2.38-2.98-4.76-5.06-6.55-2.09-1.78-4.77-3.27-8.04-4.16v-.3c6.84-2.68 11.6-6.55 14.58-11.61 2.97-5.06 4.46-11.31 4.46-18.15 0-4.46-.9-8.93-2.38-12.8-1.49-3.87-3.87-7.44-7.15-10.41-2.98-2.97-6.85-5.36-11.01-7.14-4.17-1.79-9.23-2.68-14.59-2.68h-64.58v119.65h26.19v-47.03h.3zm0-52.38h28.87c5.954 0 10.42 1.19 13.692 3.87 2.977 2.68 4.465 6.85 4.465 12.8s-1.488 10.42-4.465 13.1-7.44 4.17-13.69 4.17h-28.872v-33.93zm-43.455 224.71c-1.786-2.38-2.977-5.06-3.572-8.33-.595-3.27-.893-6.25-.893-9.52v-74.41H358.06v74.41c0 16.37 4.466 28.28 13.395 36.31 8.93 7.74 21.43 11.61 37.503 11.61s28.573-3.87 37.503-11.9c8.93-7.74 13.7-19.94 13.7-36.01V365.9h-26.2v74.41c0 8.93-1.78 15.476-5.35 19.643-3.57 4.166-10.12 6.25-19.34 6.25-5.35 0-9.52-.894-12.8-2.38-3.57-1.193-5.95-3.276-7.74-5.657zm94.054-92.26h26.192v119.65h-26.192zM29.764 153.07v391.694h535.752V153.07H29.764zm509.56 365.203H88.398c.297-1.488.297-2.977.297-4.763 0-3.57-.595-6.846-1.785-10.12l42.86-42.86-12.502-12.5L75.6 489.7c-4.464-2.68-9.523-4.465-14.88-4.465-1.49 0-3.275.298-4.764.298v-306.57h483.07v339.31h.297zm-388.42-142.57l-16.37-5.952-11.906 32.45 16.667 5.96zm36.03 28.642L162.52 428.76l-12.416-12.418 24.413-24.413zm-79.486-3.937v-34.526h-17.56v34.526zm94.65 26.49l-32.443 11.61 5.953 16.666 32.442-11.906zm-25.002 41.372v17.56h34.526v-17.56z"/></svg>