<svg xmlns="http://www.w3.org/2000/svg" viewBox="29.764 153.069 535.49 535.157" enable-background="new 29.764 153.069 535.49 535.157"><path d="M257.458 293.555l-28.275-60.42-30.954 14.286 28.27 60.43 30.95-14.28zm60.123-70.54h-34.22v66.67h33.93v-66.67h.3zM158.35 276.59l-24.11 24.108 47.326 47.325 24.11-24.11-47.325-47.323zm147.03 246.445L274.72 382.55l-31.55 8.036 28.573 142.867c-19.05 13.394-30.062 37.8-25.597 62.207 5.952 32.145 36.014 51.193 66.67 41.967s49.11-42.265 41.67-73.517c-5.654-24.407-26.19-40.48-49.11-41.075zm94.648-275.614l-30.954-14.28-28.275 60.42 30.95 14.29 28.27-60.42zm63.1 53.28l-24.11-24.11-47.323 47.33 24.108 24.11 47.325-47.32zM297.64 153.07c-147.927 0-267.876 119.95-267.876 267.58 0 147.927 119.95 267.578 267.876 267.578S565.516 568.28 565.516 420.65 445.566 153.07 297.64 153.07zm0 506.286c-131.854 0-238.707-106.853-238.707-238.41 0-131.556 106.853-238.707 238.707-238.707s238.707 106.85 238.707 238.41c0 131.55-106.853 238.7-238.707 238.7z"/></svg>