<svg xmlns="http://www.w3.org/2000/svg" viewBox="29.764 153.069 535.752 535.157" enable-background="new 29.764 153.069 535.752 535.157"><path d="M337.822 293.555l28.275-60.42 30.955 14.286-28.276 60.43-30.954-14.28zm-60.124-70.54h33.93v66.67H277.7v-66.67zm159.238 53.575l24.108 24.108-47.324 47.325-24.11-24.11 47.326-47.323zM300.022 526.012l65.48-138.998 30.062 14.584-65.48 140.486c15.18 16.37 19.644 41.372 9.524 63.397-13.097 28.28-45.24 40.19-71.73 26.49s-36.908-47.32-23.813-75c10.418-22.62 33.633-34.52 55.957-30.95zm-104.77-278.59l30.954-14.288 28.276 60.42-30.955 14.288-28.275-60.42zm-63.1 53.276l24.11-24.108 47.324 47.325-24.11 24.11-47.323-47.327zm165.488-147.63c147.927 0 267.876 119.95 267.876 267.58 0 147.927-119.95 267.578-267.876 267.578S29.764 568.276 29.764 420.646c0-147.628 119.95-267.577 267.876-267.577zm0 506.286c131.854 0 238.707-106.853 238.707-238.41 0-131.854-106.853-238.41-238.707-238.41S58.933 289.09 58.933 420.648c0 131.855 106.852 238.707 238.707 238.707z"/></svg>