<svg xmlns="http://www.w3.org/2000/svg" viewBox="29.764 153.069 535.752 535.157" enable-background="new 29.764 153.069 535.752 535.157"><path d="M257.458 293.555l-28.275-60.42-30.954 14.286 28.27 60.43 30.95-14.28zm60.122-70.54h-34.227v66.67h33.93v-66.67h.298zM158.345 276.59l-24.11 24.108 47.326 47.325 24.11-24.11-47.32-47.323zM316.69 530.18v-151.8h-34.23v152.69c-20.537 7.44-35.12 27.085-35.12 50.3 0 29.468 24.107 53.576 53.574 53.576 29.466 0 53.575-24.108 53.575-53.575 0-24.1-15.78-44.64-37.8-51.19zm83.338-282.76l-30.954-14.286-28.275 60.42 30.95 14.288 28.27-60.42zm63.1 53.278l-24.11-24.108-47.323 47.325 24.108 24.11 47.325-47.327zM297.64 153.07c-147.927 0-267.876 119.948-267.876 267.578 0 147.927 119.95 267.578 267.876 267.578s267.876-119.948 267.876-267.578-119.95-267.58-267.876-267.58zm0 506.284c-131.854 0-238.707-106.853-238.707-238.41 0-131.854 106.853-238.41 238.707-238.41s238.707 106.854 238.707 238.41c0 131.558-106.853 238.41-238.707 238.41z"/></svg>