<svg xmlns="http://www.w3.org/2000/svg" viewBox="29.764 153.069 535.667 535.157" enable-background="new 29.764 153.069 535.667 535.157"><path d="M337.822 293.555l28.275-60.42 30.955 14.286-28.276 60.43-30.954-14.28zm-60.124-70.54h33.93v66.67H277.7v-66.67zm159.238 53.575l24.108 24.108-47.324 47.325-24.11-24.11 47.326-47.323zM289.902 523.035l30.36-140.486 31.55 8.03-28.575 142.86c19.05 13.39 30.062 37.8 25.598 62.2-5.953 32.14-36.015 51.19-66.672 41.96-30.656-9.23-49.11-42.27-41.67-73.52 5.953-24.41 26.49-40.48 49.41-41.08zm-94.65-275.614l30.954-14.28 28.276 60.42-30.955 14.29-28.275-60.42zm-63.1 53.28l24.11-24.11 47.324 47.33-24.11 24.11-47.323-47.32zM297.64 153.07c147.927 0 267.876 119.95 267.876 267.58 0 147.926-119.95 267.577-267.876 267.577S29.764 568.277 29.764 420.647 149.714 153.07 297.64 153.07zm0 506.285c131.854 0 238.707-106.853 238.707-238.41 0-131.556-106.853-238.707-238.707-238.707S58.933 289.09 58.933 420.648c0 131.556 106.852 238.706 238.707 238.706z"/></svg>