<svg xmlns="http://www.w3.org/2000/svg" viewBox="29.764 153.069 535.752 535.157" enable-background="new 29.764 153.069 535.752 535.157"><path d="M257.458 293.555l-28.275-60.42-30.954 14.286 28.27 60.43 30.95-14.28zm60.123-70.54h-34.22v66.67h33.93v-66.67h.3zM158.35 276.59l-24.11 24.108 47.326 47.325 24.11-24.11-47.325-47.323zm136.91 249.422l-65.48-138.998-30.063 14.584 65.48 140.486c-15.18 16.37-19.644 41.372-9.523 63.397 13.096 28.28 45.24 40.19 71.73 26.49 26.49-13.69 36.907-47.32 23.812-75-10.418-22.62-33.635-34.52-55.957-30.95zm104.768-278.59l-30.954-14.288-28.275 60.42 30.95 14.288 28.27-60.42zm63.1 53.276l-24.11-24.108-47.323 47.325 24.108 24.11 47.325-47.327zM297.64 153.068c-147.927 0-267.876 119.95-267.876 267.58 0 147.927 119.95 267.578 267.876 267.578s267.876-119.948 267.876-267.578-119.95-267.58-267.876-267.58zm0 506.286c-131.854 0-238.707-106.853-238.707-238.41 0-131.854 106.853-238.41 238.707-238.41s238.707 106.854 238.707 238.41c0 131.558-106.853 238.41-238.707 238.41z"/></svg>