<svg viewBox="0 0 30 30" style="background-color:#ffffff00" xmlns="http://www.w3.org/2000/svg"><path d="M-.074 0H30v30H-.074z" fill="#fff"/><path d="M23.985 8.693H21.53V6.245h-1.228v2.448h-2.454v1.223h2.454v2.447h1.228V9.916h2.455V8.693zM15.27 16.3c-.494-.368-1.568-1.125-1.568-1.633 0-.594.17-.888 1.07-1.587.92-.718 1.57-1.663 1.57-2.836 0-1.278-.522-2.437-1.51-3h1.4L17.42 6h-5.322c-2.7 0-4.952 1.985-4.952 4.17 0 2.23 1.48 4.01 4.02 4.01.176 0 .348-.01.515-.023-.16.316-.28.667-.28 1.035 0 .62.34.974.77 1.383-.32 0-.63.01-.96.01-3.09 0-5.25 2.12-5.25 4.156 0 2.01 2.61 3.26 5.71 3.26 3.53 0 5.69-1.99 5.69-4 0-1.6-.35-2.41-2.06-3.7zm-3.076-2.932c-1.436-.043-2.8-1.355-3.046-3.233-.25-1.877.715-3.314 2.148-3.273 1.434.044 2.662 1.585 2.91 3.462.246 1.878-.58 3.086-2.012 3.044zm-.563 9.745c-2.13 0-3.68-1.348-3.68-2.968 0-1.588 1.81-2.957 3.95-2.933.5.004.97.084 1.39.22 1.16.805 2.1 1.307 2.34 2.224.05.185.07.376.07.57 0 1.622-1.04 2.887-4.05 2.887z"/></svg>