<svg viewBox="0 0 30 30" style="background-color:#ffffff00" xmlns="http://www.w3.org/2000/svg" width="30" height="30"><path d="M-.077 0h30.154v30H-.077z"/><path d="M23.87 10.104c-.663.29-1.377.485-2.126.573.765-.45 1.35-1.163 1.628-2.01-.716.415-1.51.72-2.35.88-.676-.706-1.64-1.147-2.703-1.147-2.05 0-3.71 1.627-3.71 3.635 0 .285.03.562.09.83-3.08-.153-5.81-1.6-7.63-3.8-.32.537-.5 1.162-.5 1.828 0 1.26.65 2.374 1.64 3.025-.61-.018-1.18-.182-1.68-.454v.046c0 1.76 1.27 3.23 2.97 3.564-.31.084-.64.128-.98.128-.24 0-.47-.023-.7-.065.47 1.444 1.84 2.495 3.46 2.524-1.27.98-2.86 1.56-4.6 1.56-.3 0-.6-.02-.89-.05 1.64 1.03 3.59 1.63 5.68 1.63C18.28 22.8 22 17.26 22 12.46c0-.16 0-.31-.01-.47.723-.51 1.35-1.15 1.847-1.88z" fill="#fff"/></svg>