<svg xmlns="http://www.w3.org/2000/svg" viewBox="0 153.172 595.279 245.45" enable-background="new 0 153.172 595.279 245.45"><path d="M223.23 317.07c0 5.06-1.785 9.523-5.655 12.797-3.87 3.572-8.333 5.357-13.394 5.357h-26.49c-5.06 0-9.52-1.488-13.09-4.762-3.87-3.572-5.95-7.74-5.95-13.394v-67.862c0-1.19.6-2.083 2.09-2.083h11.02c1.19 0 1.79.596 1.79 2.083v66.97c0 1.487.6 2.976 1.49 3.868.9.893 2.09 1.488 3.28 1.488h25.3c3.27 0 5.06-1.488 5.06-4.762v-67.564c0-1.19.6-2.083 1.79-2.083h11.02c1.19 0 2.09.596 2.09 2.083v67.862h-.3zm92.566 16.07c0 1.49-.596 2.084-2.084 2.084h-10.715c-1.19 0-1.785-.595-1.785-2.083V262.9c0-1.19-.298-1.786-1.19-1.786h-1.488c-.596 0-1.19.298-2.084.893l-27.98 21.132c-2.38 1.78-3.57 4.46-3.57 7.14v42.26c0 1.78-.893 2.38-2.38 2.38h-9.823c-1.488 0-2.38-.9-2.38-2.38V249.8c0-1.785.892-2.38 2.38-2.38h9.227c1.786 0 2.38.893 2.38 2.38v18.75l25.6-19.345c1.487-1.19 3.57-1.787 5.654-1.787h13.69c1.786 0 3.274.594 4.168 1.785 1.19 1.19 1.785 2.68 1.785 4.464v79.47h.6zm41.372-.594c0 1.786-.894 2.38-2.382 2.38h-9.82c-1.787 0-2.383-.892-2.383-2.38v-82.744c0-1.786.894-2.38 2.382-2.38h9.82c1.49 0 2.383.892 2.383 2.38v82.744zm83.935-73.516c0 1.487-.596 2.082-2.084 2.082h-21.73v72.03c0 1.487-.6 2.082-2.09 2.082h-11.01c-1.19 0-2.09-.595-2.09-2.083v-72.02h-21.13c-1.19 0-2.09-.59-2.09-2.08v-9.82c0-1.48.59-2.08 2.08-2.08H439c1.19 0 2.084.6 2.084 2.09v9.83zm34.227-.3c0 1.787-.893 2.68-2.38 2.68h-8.632c-1.786 0-2.382-.893-2.382-2.68v-8.93c0-1.785.894-2.678 2.382-2.678h8.63c1.787 0 2.383.893 2.383 2.68v8.93zm0 73.816c0 1.786-.893 2.38-2.38 2.38h-8.632c-1.786 0-2.382-.892-2.382-2.38v-57.742c0-1.786.894-2.38 2.382-2.38h8.63c1.787 0 2.383.892 2.383 2.38v57.742zm90.186-15.476c0 5.06-2.083 9.523-5.953 12.797-3.87 3.572-8.63 5.357-14.584 5.357H503.9c-2.084 0-2.977-1.19-2.977-3.274v-81.553c0-2.083.893-3.274 2.977-3.274h41.074c5.356 0 10.12 1.786 14.286 5.358 4.167 3.58 6.25 7.74 6.25 12.8v51.79zm-14.882-.3v-51.49c0-2.68-1.488-3.87-4.167-3.87h-30.954v60.123h30.954c.893 0 1.786-.595 2.68-1.488 1.19-1.19 1.487-2.084 1.487-3.274zm-392.587 45.54c0-1.19.893-2.38 2.38-2.38 1.19 0 2.382 1.19 2.382 2.38s-.9 2.38-2.39 2.38c-1.49-.296-2.38-1.19-2.38-2.38zm.595 27.383v-22.025h3.274v22.025h-3.274zm24.704 0V375.11c0-3.87-2.083-5.06-5.06-5.06-2.68 0-5.06 1.785-6.548 3.57v16.073h-3.274v-22.025h3.274v3.274c1.488-1.786 4.465-3.87 7.738-3.87 4.465 0 6.846 2.382 6.846 7.144v15.478h-2.976zm10.716-4.763v-14.583h-3.572v-2.977h3.572v-5.953h3.57v5.953h4.466v2.977h-4.465v13.69c0 1.787.596 2.978 2.083 2.978.894 0 1.786-.595 2.382-.893l.893 2.68c-.89.892-2.08 1.487-4.16 1.487-2.97-.01-4.76-1.79-4.76-5.36zm11.308-6.25c0-6.548 4.466-11.608 10.717-11.608 6.548 0 10.417 5.357 10.417 11.906v.893h-17.56c.297 4.17 2.976 7.74 7.737 7.74 2.39 0 5.06-.89 6.85-2.97l1.49 2.38c-2.08 2.09-5.06 3.58-8.63 3.58-6.54-.3-11.01-5.06-11.01-11.9zm10.717-8.93c-4.763 0-6.846 3.87-7.144 7.442h14.286c0-3.274-2.09-7.44-7.15-7.44zm15.775 19.943v-22.025h3.274v3.572c1.785-2.38 4.167-4.167 7.144-4.167v3.572h-1.19c-2.084 0-5.06 1.786-5.953 3.57v15.776h-3.274v-.29zm23.513 0v-2.38c-1.786 2.082-4.167 2.976-7.144 2.976-3.57 0-7.44-2.39-7.44-7.45s3.87-7.15 7.44-7.15c2.98 0 5.36.89 7.15 2.97v-3.87c0-2.98-2.38-4.76-5.65-4.76-2.68 0-4.76.89-6.54 2.97l-1.49-2.38c2.38-2.39 5.06-3.58 8.63-3.58 4.76 0 8.34 2.08 8.34 7.44v15.18h-3.27zm0-4.762v-4.16c-1.19-1.78-3.57-2.68-5.953-2.68-3.273 0-5.357 2.09-5.357 4.77 0 2.98 2.084 4.76 5.357 4.76 2.382.3 4.465-.89 5.953-2.68zm8.632-6.25c0-6.54 4.464-11.6 11.013-11.6 3.87 0 6.25 1.79 8.036 3.87l-2.38 2.08c-1.49-2.08-3.275-2.97-5.656-2.97-4.465 0-7.44 3.57-7.44 8.63 0 4.77 2.976 8.63 7.44 8.63 2.38 0 4.167-.89 5.655-2.97l2.38 2.08c-1.785 2.09-4.166 3.87-8.035 3.87-6.55 0-11.013-5.06-11.013-11.6zm29.168 6.25v-14.58h-3.57v-2.97h3.57v-5.95h3.572v5.96h4.465v2.98h-4.465v13.69c0 1.79.595 2.98 2.083 2.98.894 0 1.786-.59 2.382-.89l.893 2.68c-.893.89-2.083 1.49-4.167 1.49-2.977 0-4.763-1.79-4.763-5.36zm11.905-22.62c0-1.19.894-2.38 2.382-2.38 1.19 0 2.38 1.19 2.38 2.38s-.892 2.38-2.38 2.38c-1.19-.29-2.38-1.19-2.38-2.38zm.596 27.39v-22.03h3.274v22.03h-3.274zm8.93-11.01c0-6.54 4.167-11.6 10.715-11.6s10.72 5.06 10.72 11.61-4.16 11.61-10.71 11.61-10.71-5.35-10.71-11.61zm17.858 0c0-4.46-2.68-8.63-7.144-8.63-4.763 0-7.144 4.17-7.144 8.63s2.68 8.63 7.144 8.63c4.762.01 7.144-4.16 7.144-8.63zm18.75 11.02v-14.59c0-3.87-2.082-5.06-5.06-5.06-2.68 0-5.06 1.79-6.547 3.57v16.07h-3.274v-22.03h3.273v3.28c1.488-1.78 4.465-3.87 7.74-3.87 4.464 0 6.845 2.38 6.845 7.15v15.47h-2.97zm42.564 0v-3.27c-1.488 2.38-4.167 3.87-7.44 3.87-5.655 0-9.822-4.46-9.822-11.61s4.167-11.61 9.82-11.61c2.978 0 5.656 1.49 7.442 3.87v-11.61h3.274v30.36h-3.274zm0-5.95v-9.82c-1.19-1.78-3.87-3.57-6.548-3.57-4.465 0-7.144 3.58-7.144 8.64 0 4.76 2.68 8.63 7.144 8.63 2.678-.3 5.357-2.08 6.548-3.87zm8.632-5.06c0-6.54 4.464-11.6 10.714-11.6 6.548 0 10.417 5.36 10.417 11.91v.89h-17.56c.3 4.17 2.98 7.74 7.74 7.74 2.68 0 5.06-.89 6.85-2.97l1.49 2.38c-2.08 2.09-5.06 3.58-8.63 3.58-6.25-.3-11.01-5.06-11.01-11.9zm10.714-8.93c-4.763 0-6.846 3.87-7.144 7.45h14.287c0-3.27-2.083-7.44-7.143-7.44zm13.99 16.97l1.786-2.38c1.487 1.79 4.167 3.28 7.143 3.28 3.274 0 5.06-1.49 5.06-3.87 0-5.36-13.394-2.08-13.394-10.12 0-3.57 2.97-6.25 8.03-6.25 3.87 0 6.25 1.49 8.03 3.28l-1.49 2.38c-1.19-1.48-3.58-2.68-6.55-2.68-2.98 0-4.76 1.49-4.76 3.57 0 4.77 13.39 1.79 13.39 10.12 0 3.58-2.98 6.55-8.63 6.55-3.58-.3-6.55-1.49-8.64-3.87zm22.026-24.4c0-1.19.892-2.38 2.38-2.38 1.19 0 2.38 1.19 2.38 2.38s-.892 2.38-2.38 2.38c-1.19-.29-2.38-1.19-2.38-2.38zm.594 27.39V367.7h3.274v22.02h-3.274zm10.12 5.66l1.786-2.38c1.785 2.08 3.87 2.98 7.144 2.98 3.57 0 7.143-1.78 7.143-6.55v-3.27c-1.488 2.38-4.167 3.87-7.44 3.87-5.655 0-9.822-4.17-9.822-11.31s3.87-11.61 9.822-11.61c2.977 0 5.655 1.49 7.44 3.87v-3.28h3.274v21.72c0 6.85-5.06 9.23-10.41 9.23-3.87 0-6.25-.6-8.93-3.27zm15.775-11.9v-9.82c-1.2-1.79-3.87-3.57-6.55-3.57-4.47 0-7.15 3.57-7.15 8.33s2.68 8.34 7.14 8.34c2.68.3 5.35-1.49 6.55-3.27zm24.7 6.25v-14.59c0-3.87-2.09-5.06-5.06-5.06-2.68 0-5.06 1.79-6.55 3.57v16.07h-3.28V367.7h3.27v3.27c1.49-1.785 4.46-3.87 7.74-3.87 4.46 0 6.84 2.383 6.84 7.145v15.48h-2.98zm3.87-11.01c0-6.55 4.46-11.61 10.71-11.61 6.55 0 10.41 5.36 10.41 11.91v.89h-17.56c.29 4.17 2.97 7.74 7.74 7.74 2.68 0 5.06-.89 6.84-2.97l1.48 2.38c-2.09 2.09-5.06 3.58-8.63 3.58-6.25-.3-11.02-5.06-11.02-11.91zm10.71-8.93c-4.77 0-6.85 3.87-7.15 7.44h14.28c0-3.27-2.09-7.44-7.15-7.44zm20.84 19.94V367.7h3.27v3.57c1.78-2.38 4.16-4.168 7.14-4.168v3.57h-1.19c-2.09 0-5.06 1.786-5.96 3.57V390h-3.28v-.297zm8.03-2.98l1.78-2.38c1.49 1.79 4.16 3.28 7.14 3.28 3.27 0 5.06-1.49 5.06-3.87 0-5.36-13.4-2.08-13.4-10.12 0-3.57 2.98-6.25 8.04-6.25 3.87 0 6.25 1.49 8.03 3.27l-1.49 2.38c-1.19-1.49-3.57-2.68-6.55-2.68s-4.77 1.49-4.77 3.57c0 4.76 13.39 1.79 13.39 10.12 0 3.57-2.98 6.55-8.63 6.55-3.57-.3-6.55-1.49-8.63-3.87z" fill="#fff"/><path fill="#333" d="M77.09 257.838c.892 0 1.487.893 1.487 1.786s-.894 1.488-1.786 1.488-1.48-.893-1.48-1.786c0-.892.9-1.488 1.79-1.488zm2.082-8.928c.894.296 1.19 1.19 1.19 2.082-.297.893-.893 1.488-1.785 1.19-.894-.297-1.488-1.19-1.19-2.083-.298-.9.893-1.49 1.785-1.19zm2.678-8.633c.895.298 1.19 1.19.895 2.083-.298.893-1.19 1.19-2.084.893s-1.48-1.19-.89-2.083c.3-.893 1.19-1.19 2.09-.893zm3.87-8.334c.894.298 1.19 1.488.596 2.083-.298.893-1.488 1.19-2.084.595-.893-.29-1.19-1.19-.893-2.08.59-.59 1.48-.89 2.38-.59z"/><path fill="#fff" d="M90.185 224.205c.596.595.893 1.488.596 2.38-.59.894-1.48.894-2.08.596-.89-.59-.89-1.48-.59-2.38.6-.89 1.49-1.19 2.09-.59zm5.655-7.44c.596.595.596 1.487.298 2.38-.596.595-1.488.893-2.38.3-.597-.597-.895-1.49-.3-2.383.596-.894 1.786-.894 2.382-.298zm6.548-6.55c.596.596.596 1.787 0 2.38-.595.597-1.785.597-2.38 0s-.597-1.784 0-2.38 1.785-.594 2.38 0zm6.846-5.655c.596.596.298 1.787-.297 2.382-.596.595-1.786.297-2.382-.298-.595-.595-.298-1.786.298-2.38.892-.596 1.786-.596 2.38.297zm7.44-5.357c.596.893.3 1.786-.595 2.083-.6.595-1.79.298-2.09-.595-.6-.89-.3-1.78.59-2.38.59 0 1.78.3 2.08.9zm8.036-4.167c.3.893 0 1.786-.595 2.083-.893.29-1.785 0-2.083-.6-.298-.9 0-1.79.596-2.09.595-.6 1.785-.3 2.083.59zm8.335-3.87c.298.894 0 1.787-.893 2.084-.894.297-1.786 0-2.084-.893s0-1.786.893-2.083c.6-.297 1.49 0 2.09.893zm8.335-3.273c.297.893-.3 1.786-.894 2.084-.894.297-1.786 0-2.084-.893s0-1.786.893-2.083c.894-.29 1.786 0 2.084.9zm8.63-2.68c.298.894-.297 1.787-1.19 2.084-.893.298-1.785-.297-2.083-1.19s.298-1.786 1.19-2.083c.893-.298 1.786.297 2.084 1.19zm8.93-2.083c.298.894-.298 1.787-1.19 2.084-.893.298-1.786-.297-1.786-1.19-.297-.893.298-1.786 1.19-2.083.595-.29 1.488.3 1.786 1.19zm8.93-1.785c0 .893-.3 1.786-1.192 1.786-.893.3-1.785-.29-1.785-1.19-.298-.89.298-1.78 1.19-1.78.595-.3 1.49.3 1.786 1.19zm8.928-1.49c0 .894-.595 1.787-1.488 1.787s-1.785-.596-1.785-1.488c0-.893.595-1.786 1.487-1.786.894 0 1.488.596 1.786 1.488zm8.93-.89c0 .892-.596 1.785-1.488 1.785-.894 0-1.786-.595-1.786-1.488s.596-1.786 1.488-1.786 1.786.595 1.786 1.488zm8.928-.597c0 .893-.595 1.786-1.488 1.786s-1.785-.595-1.785-1.488.595-1.786 1.487-1.786c1.192 0 1.786.596 1.786 1.488zm9.227 0c0 .893-.595 1.488-1.487 1.488-.894 0-1.488-.595-1.488-1.488s.595-1.786 1.488-1.786c.594 0 1.487.894 1.487 1.786zM76.79 229.265c-22.62-2.976-43.455 13.096-46.728 35.717-2.38 17.263 3.273 54.468 17.263 62.504l-3.57 26.49c-.3.595-.3 1.488-.3 2.083-1.19 9.52 5.358 17.85 14.586 19.04 9.23 1.19 17.86-5.66 19.05-14.88 0-.6.3-1.49.3-2.09l3.57-27.39c14.59-5.06 28.58-38.99 30.66-55.36 3.57-22.33-12.2-43.16-34.82-46.14zm9.824 31.847c.893-.298 1.785 0 2.083.893.298.893-.298 1.786-1.19 2.083-.893.297-1.786-.298-2.083-.893 0-.594.296-1.487 1.19-2.083zm-30.36 1.19c.298-.892 1.19-1.487 2.083-.892.894.297 1.19 1.19.894 2.083-.29.596-1.19 1.19-2.08.893-.59 0-1.19-.893-.89-2.083zm-.596 7.144c0-.893.596-1.786 1.488-1.786.894 0 1.786.596 1.786 1.488 0 .893-.596 1.488-1.19 1.786-1.19.298-2.084-.297-2.084-1.488zm4.465 7.144c-.596.595-1.786.297-2.38-.596-.597-.893-.3-1.786.594-2.38.894-.3 1.786 0 2.084.594.6.894.3 2.084-.29 2.382zm0-17.86c-.596-.297-.596-.595-.596-1.19 0-.297 0-.893.596-1.19.596-.595 1.786-.595 2.38 0 .597.595.597 1.786 0 2.38-.297.298-.594.298-.892.596-.89-.297-1.19-.297-1.48-.595zm4.763 22.027c-.298.893-1.488 1.19-2.382.595-.893-.595-.893-1.786-.298-2.38.596-.596 1.488-.894 2.084-.3.893.597 1.19 1.49.596 2.085zm2.083-25.597c-.6.297-1.49 0-2.09-.893-.6-.893 0-1.786.89-2.083.89-.297 1.78 0 2.08.893 0 .892-.3 1.785-.9 2.083zm2.08 28.87c-.6 0-.9-.297-1.19-.594-.3-.298-.3-.893 0-1.19 0-.298.29-.894.89-.894.3-.297.59-.297 1.19-.297.89.297 1.19.893 1.19 1.786-.3.9-1.19 1.49-2.09 1.19zm5.06-31.55c0 .894-.9 1.49-1.49 1.49-.9 0-1.49-.596-1.49-1.49 0-.892.59-1.785 1.49-1.785s1.49.893 1.49 1.786zm2.08 31.55c-.9.298-1.79-.297-1.79-1.487 0-.893.59-1.786 1.19-1.786.89-.298 1.49.297 1.78 1.19.3.893-.3 1.786-1.19 2.084zm1.78-28.87c-.6-.298-1.19-1.19-.9-2.083.29-.893 1.19-1.488 2.08-.893.89.297 1.19 1.488.89 2.083-.3.893-1.2 1.19-2.09.893zm4.46 26.192c-.9.596-1.79.298-2.38-.595-.3-.893-.3-1.786.29-2.084.59-.595 1.49-.297 2.08.298.89.6.89 1.79 0 2.39zm.29-22.918c-.6-.595-.6-1.488 0-2.083.59-.59 1.78-.89 2.38 0 .59.6.59 1.79 0 2.39-.9.3-1.79.3-2.38-.3zm4.46 17.56c-.6.893-1.49 1.19-2.38.596-.6-.596-.89-1.488-.6-2.084.3-.595 1.19-.893 2.08-.595 1.19.3 1.49 1.2.89 2.09zm1.79-5.655c-.3.29-.9.29-1.19.29s-.9-.3-.9-.6c-.6-.3-.6-.6-.6-1.19 0-.9.89-1.49 1.78-1.49s1.49.89 1.49 1.78c0 .59-.3 1.19-.6 1.19z"/><path fill="#FA3D05" d="M266.388 174.5l-16.37-17.562c-4.465-4.763-11.905-5.06-16.966-.596l-17.56 15.478c-4.764 4.167-5.358 11.31-1.19 16.072l15.18 17.858c4.166 5.06 11.904 5.953 16.964 1.488l18.752-15.477c5.357-4.46 5.655-12.2 1.19-17.26zm-17.263 4.464c0 .595-.596 1.19-1.19 1.488l-3.87 1.488 3.274 2.38c.59.596.89.894.59 1.787 0 .595-.3.893-.9 1.19-.6.298-.9.595-1.49.298-.3 0-.6-.298-.9-.298l-3.28-2.38-.3 3.868c0 .595-.3 1.19-.9 1.19-.3.298-.9.298-1.49.298s-.9-.297-1.19-.595c-.3-.595-.6-.893-.3-1.786l.59-3.57-4.17 1.487c-.3 0-.6.29-1.19 0-.6 0-.89-.3-1.19-.9-.3-.6-.3-.9-.3-1.49s.59-1.19 1.19-1.49l4.16-1.49-3.28-2.68c-.6-.6-.9-1.19-.6-1.79 0-.6.29-.9.89-1.19.6-.3.89-.6 1.49-.3.3 0 .59.29.89.59l2.97 2.68.59-3.87c0-.6.29-1.19.89-1.19.3-.3.89-.3 1.49-.3s.89.3 1.49.59c.3.59.59.89.3 1.49l-.6 3.86c.6-.3 2.08-.6 3.57-1.49.29 0 .59-.3 1.19 0 .59 0 .89.29 1.19.89.29 0 .59.59.29 1.19z"/></svg>