<svg xmlns="http://www.w3.org/2000/svg" viewBox="0 0 200 200" enable-background="new 0 0 200 200"><g fill="#fff"><path d="M66.2 78.7c1.8 7.2 5 14.8 9.2 22.2 4.2 7.3 9.3 13.9 14.6 19.1 3.4 3.3 6.8 5.9 10 7.7V10c-37.6 0-70.6 9.8-89 25.1-4 23.7 4 57.2 22.7 89.9 18.8 32.7 43.8 56.4 66.3 64.7v-25.8c-6.1-3.4-12.4-8.3-18.7-14.5-9.9-9.6-19.3-22-27.2-35.7s-14-28.1-17.3-41.6c-2.2-8.6-3.2-16.6-3.1-23.6 6-3.5 13.4-6.6 21.9-9.1 5.3-1.5 10.9-2.7 16.7-3.7.1 2.5.2 5.1.4 7.9.4 5.9 1.1 12 1.9 18.1-3.8 1.2-7.2 2.7-9.9 4.3-.2 3.8.4 8.1 1.5 12.7z"/><path opacity=".8" d="M189 35.1C170.6 19.8 137.6 10 100 10v117.7c3.2-1.8 6.6-4.4 10-7.7 5.3-5.1 10.3-11.7 14.6-19.1 4.2-7.3 7.4-15 9.2-22.2 1.2-4.6 1.7-8.9 1.7-12.6-2.8-1.6-6.1-3.1-9.9-4.3.8-6.1 1.5-12.3 1.9-18.1.2-2.8.3-5.4.4-7.9 5.8.9 11.4 2.1 16.7 3.7 8.5 2.4 15.9 5.5 21.9 9.1.1 7-.9 14.9-3.1 23.6-3.4 13.4-9.3 27.8-17.2 41.6-7.9 13.8-17.3 26.1-27.2 35.7-6.4 6.2-12.7 11.1-18.7 14.5v25.8c22.5-8.3 47.4-32 66.3-64.7C185 92.3 193 58.8 189 35.1z"/><path opacity=".4" d="M100 127.7c-3.2-1.8-6.6-4.4-10-7.7-5.3-5.1-10.3-11.7-14.6-19.1-4.2-7.3-7.4-15-9.2-22.2-1.2-4.6-1.7-8.9-1.7-12.6 2.8-1.6 6.1-3.1 9.9-4.3-.8-6.1-1.5-12.3-1.9-18.1-.2-2.8-.3-5.4-.4-7.9-5.8.9-11.4 2.1-16.7 3.7-8.4 2.4-15.8 5.5-21.8 9-.1 7 .9 14.9 3.1 23.6 3.4 13.4 9.3 27.8 17.2 41.6 7.9 13.8 17.3 26.1 27.2 35.7 6.4 6.2 12.7 11.1 18.7 14.5l.2-36.2z"/></g></svg>